<svg id="Layer_1" data-name="Layer 1" xmlns="http://www.w3.org/2000/svg" viewBox="0 0 257 256"><defs><style>.cls-1{fill:#617db5;}.cls-2{opacity:0.8;}.cls-3{fill:#fff;}</style></defs><title>icon</title><rect class="cls-1" width="257" height="256"/><rect class="cls-2" x="0.5" y="98" width="256" height="60"/><path class="cls-3" d="M11.5,136.17h-2L20.13,118.5H22Z" transform="translate(0.5 0)"/><path class="cls-3" d="M28,128.58v-3.73l-2.82,2-1-1.73,3.3-1.61-3.3-1.63,1-1.71,2.82,2V118.5h2v3.74l2.83-2,1,1.7-3.31,1.63,3.31,1.61-1,1.74-2.83-2v3.73Z" transform="translate(0.5 0)"/><path class="cls-3" d="M51,135.66,49.09,119h2l1.13,10.15.15,1.69h.05l.22-1.69L54.38,119h2l2,10.56.2,1.61h.05l.13-1.62L60,119h1.7l-2,16.67H57.62l-2.15-11.3-.23-1.7h-.05l-.2,1.7-1.93,11.3Z" transform="translate(0.5 0)"/><path class="cls-3" d="M66,129.58v6.08H63.88V119H68a9,9,0,0,1,3.73.57,4.06,4.06,0,0,1,1.79,1.68,5,5,0,0,1,.62,2.47,5.67,5.67,0,0,1-.84,3A5.57,5.57,0,0,1,71,128.84a9.22,9.22,0,0,1-4.07.75Zm0-1.67H67a6.58,6.58,0,0,0,3-.52,3.58,3.58,0,0,0,1.5-1.5,4.4,4.4,0,0,0,.53-2.12,2.91,2.91,0,0,0-.94-2.28q-.94-.84-3.71-.84H66Z" transform="translate(0.5 0)"/><path class="cls-3" d="M77.63,129.75v-1.67H86v1.67Z" transform="translate(0.5 0)"/><path class="cls-3" d="M89.75,119h2.17v10.95a8.1,8.1,0,0,0,.36,2.95,2.54,2.54,0,0,0,1.1,1.2,3.54,3.54,0,0,0,3.38,0,2.63,2.63,0,0,0,1.12-1.4,11.74,11.74,0,0,0,.36-3.57V119h2v10.88a7.92,7.92,0,0,1-.69,3.65,4.88,4.88,0,0,1-1.81,2,5.41,5.41,0,0,1-2.81.67,6.23,6.23,0,0,1-2.76-.58,3.93,3.93,0,0,1-1.8-1.74,9.93,9.93,0,0,1-.61-4.19Z" transform="translate(0.5 0)"/><path class="cls-3" d="M103.26,135.66v-12h2v2.62a6.78,6.78,0,0,1,2.07-2.17,4.45,4.45,0,0,1,2.43-.78,3.48,3.48,0,0,1,1.93.56,3,3,0,0,1,1.22,1.48,11.87,11.87,0,0,1,.35,3.59v6.7h-2v-7a9.82,9.82,0,0,0-.17-2.28,1.79,1.79,0,0,0-.61-.91,1.53,1.53,0,0,0-1-.35,3.65,3.65,0,0,0-2.26,1,8,8,0,0,0-2,2.5v7Z" transform="translate(0.5 0)"/><path class="cls-3" d="M118.31,126.36a6.56,6.56,0,0,1,2.2-2.27,4.66,4.66,0,0,1,2.35-.76,3.62,3.62,0,0,1,2.71,1.3,5.64,5.64,0,0,1,1.2,3.94,8.38,8.38,0,0,1-.8,3.72,6.74,6.74,0,0,1-2.13,2.59,5.52,5.52,0,0,1-3.3,1q-.56,0-1.72-.12l-.52-.05v4.66h-2V123.67h2Zm0,2.38v5.15a8,8,0,0,0,2,.28,3.9,3.9,0,0,0,3.06-1.42,5.73,5.73,0,0,0,1.24-3.9,4.48,4.48,0,0,0-.68-2.7,1.92,1.92,0,0,0-1.54-.9,3.33,3.33,0,0,0-2.06.95A9.18,9.18,0,0,0,118.31,128.74Z" transform="translate(0.5 0)"/><path class="cls-3" d="M139.54,123.67v12h-2V133a7.19,7.19,0,0,1-2.15,2.22A4.42,4.42,0,0,1,133,136a3.49,3.49,0,0,1-1.93-.56,3,3,0,0,1-1.22-1.48,12.08,12.08,0,0,1-.34-3.58v-6.7h2v7a9.75,9.75,0,0,0,.17,2.28,1.79,1.79,0,0,0,.61.91,1.52,1.52,0,0,0,1,.35,3.66,3.66,0,0,0,2.26-1,8,8,0,0,0,2-2.51v-7Z" transform="translate(0.5 0)"/><path class="cls-3" d="M144.71,126.36a6.56,6.56,0,0,1,2.2-2.27,4.66,4.66,0,0,1,2.35-.76,3.62,3.62,0,0,1,2.71,1.3,5.64,5.64,0,0,1,1.2,3.94,8.38,8.38,0,0,1-.8,3.72,6.74,6.74,0,0,1-2.13,2.59,5.52,5.52,0,0,1-3.3,1q-.56,0-1.72-.12l-.52-.05h-2V118.33h2Zm0,2.38v5.15a8,8,0,0,0,2,.28,3.9,3.9,0,0,0,3.06-1.42,5.73,5.73,0,0,0,1.24-3.9,4.48,4.48,0,0,0-.68-2.7,1.92,1.92,0,0,0-1.54-.9,3.33,3.33,0,0,0-2.06.95A9.18,9.18,0,0,0,144.71,128.74Z" transform="translate(0.5 0)"/><path class="cls-3" d="M159.29,135.66V120H155.7v-1.67h5.59V134H165v1.67Z" transform="translate(0.5 0)"/><path class="cls-3" d="M172.63,135.66V125.33H169.3v-1.67h5.33V134H178v1.67Zm-.32-16.33a1.16,1.16,0,0,1,.46-1,1.31,1.31,0,0,1,1.74,0,1.16,1.16,0,0,1,.46,1,1.15,1.15,0,0,1-.46,1,1.31,1.31,0,0,1-1.74,0A1.15,1.15,0,0,1,172.31,119.33Z" transform="translate(0.5 0)"/><path class="cls-3" d="M182.61,135v-2.12a8,8,0,0,0,2.55,1.1,10.21,10.21,0,0,0,2.28.32,3.76,3.76,0,0,0,2.18-.49,1.46,1.46,0,0,0,.67-1.22,1.19,1.19,0,0,0-.31-.83,4.88,4.88,0,0,0-1.55-.85l-.69-.28-1.39-.55a7.11,7.11,0,0,1-2.81-1.61,2.75,2.75,0,0,1-.59-1.78,3,3,0,0,1,1.15-2.44,5.79,5.79,0,0,1,3.72-1,11.75,11.75,0,0,1,3.65.56v1.82a11.07,11.07,0,0,0-3.72-.71,3.75,3.75,0,0,0-2,.45,1.3,1.3,0,0,0-.72,1.11,1.17,1.17,0,0,0,.62,1,11.22,11.22,0,0,0,2,.89L189,129a6.86,6.86,0,0,1,2.61,1.47,2.79,2.79,0,0,1,.75,2,3.2,3.2,0,0,1-1.2,2.56,5.92,5.92,0,0,1-3.83,1A12.73,12.73,0,0,1,182.61,135Z" transform="translate(0.5 0)"/><path class="cls-3" d="M195.68,135.66V118.33h2v8a6.78,6.78,0,0,1,2.07-2.17,4.45,4.45,0,0,1,2.43-.78,3.47,3.47,0,0,1,1.86.52,2.9,2.9,0,0,1,1.18,1.26,4.35,4.35,0,0,1,.37,1.21,22.24,22.24,0,0,1,.1,2.64v6.7h-2v-7a9.82,9.82,0,0,0-.17-2.28,1.79,1.79,0,0,0-.61-.91,1.53,1.53,0,0,0-1-.35,3.65,3.65,0,0,0-2.26,1,8,8,0,0,0-2,2.5v7Z" transform="translate(0.5 0)"/><path class="cls-3" d="M226,128.58v-3.73l-2.82,2-1-1.73,3.3-1.61-3.3-1.63,1-1.71,2.82,2V118.5h2v3.74l2.83-2,1,1.7-3.31,1.63,3.31,1.61-1,1.74-2.83-2v3.73Z" transform="translate(0.5 0)"/><path class="cls-3" d="M235.94,136.17h-2l10.59-17.67h1.9Z" transform="translate(0.5 0)"/></svg>